<svg width="337" height="390" viewBox="0 0 337 390" fill="none" xmlns="http://www.w3.org/2000/svg">
<path fill-rule="evenodd" clip-rule="evenodd" d="M222.785 319.949H115.008C112.907 319.949 111.207 318.247 111.207 316.148V315.899C111.207 289.962 101.804 265.454 84.7317 246.889C64.1666 224.527 53.4912 195.444 54.6712 164.999C55.8107 135.617 68.1636 108.09 89.4534 87.4894C110.736 66.8965 138.655 55.4407 168.07 55.2324L168.898 55.2288C231.929 55.2288 283.21 106.51 283.21 169.542C283.21 197.927 272.732 225.145 253.706 246.18C236.218 265.518 226.586 290.115 226.586 315.441V316.147C226.586 318.247 224.883 319.949 222.785 319.949ZM118.754 312.347H219.028C219.779 286.231 230.024 261.032 248.068 241.081C265.825 221.446 275.606 196.04 275.606 169.543C275.606 110.703 227.737 62.8329 168.897 62.8329L168.124 62.8356C110.978 63.2397 64.48 108.245 62.2683 165.293C61.1664 193.719 71.1306 220.869 90.328 241.742C107.911 260.864 117.932 285.816 118.754 312.347ZM166.958 40.812C164.857 40.812 163.157 39.1112 163.157 37.0108V4.44666C163.157 2.34624 164.857 0.644531 166.958 0.644531C169.057 0.644531 170.759 2.34624 170.759 4.44666V37.0117C170.759 39.1112 169.057 40.812 166.958 40.812ZM235.076 56.5324C234.455 56.5324 233.823 56.3789 233.24 56.0565C231.403 55.0409 230.738 52.7267 231.754 50.8903L247.523 22.3959C248.54 20.5604 250.853 19.8949 252.69 20.9106C254.526 21.9271 255.192 24.2404 254.175 26.0777L238.406 54.5712C237.712 55.8248 236.414 56.5324 235.076 56.5324ZM283.851 106.881C282.548 106.881 281.279 106.21 280.571 105.005C279.507 103.194 280.111 100.865 281.922 99.8008L309.998 83.3001C311.81 82.2369 314.137 82.8421 315.202 84.6516C316.265 86.462 315.66 88.7914 313.85 89.8555L285.774 106.356C285.168 106.711 284.505 106.881 283.851 106.881ZM332.855 172.664C332.821 172.664 332.788 172.664 332.755 172.663L300.2 171.815C298.1 171.76 296.444 170.015 296.498 167.917C296.553 165.817 298.337 164.171 300.397 164.214L332.952 165.062C335.051 165.117 336.708 166.863 336.653 168.962C336.6 171.027 334.908 172.664 332.855 172.664ZM310.603 255.536C309.871 255.536 309.131 255.325 308.479 254.885L281.487 236.665C279.747 235.49 279.288 233.127 280.463 231.387C281.637 229.648 283.999 229.188 285.741 230.363L312.733 248.583C314.472 249.757 314.931 252.121 313.757 253.86C313.023 254.948 311.824 255.536 310.603 255.536ZM101.81 57.3074C100.472 57.3074 99.1748 56.5998 98.4815 55.3462L82.7117 26.8517C81.6952 25.0144 82.3606 22.7021 84.197 21.6855C86.0352 20.6708 88.3476 21.3344 89.3641 23.1708L105.134 51.6644C106.15 53.5026 105.485 55.8149 103.648 56.8314C103.065 57.1547 102.434 57.3074 101.81 57.3074ZM53.0361 107.655C52.3815 107.655 51.7188 107.487 51.1144 107.131L23.0367 90.6303C21.2272 89.567 20.622 87.2367 21.6852 85.4263C22.7494 83.6169 25.0806 83.0107 26.8891 84.0758L54.966 100.576C56.7764 101.64 57.3816 103.97 56.3175 105.779C55.609 106.985 54.3391 107.655 53.0361 107.655ZM4.03228 173.439C1.97856 173.439 0.287624 171.801 0.233741 169.737C0.178963 167.638 1.83667 165.891 3.9344 165.838L36.4895 164.99C38.5765 164.959 40.3348 166.593 40.3887 168.691C40.4434 170.79 38.7857 172.536 36.6871 172.591L4.13279 173.438C4.09867 173.438 4.06551 173.439 4.03228 173.439ZM26.2839 256.312C25.0626 256.312 23.8638 255.725 23.1292 254.637C21.9546 252.896 22.4135 250.534 24.1538 249.359L51.1459 231.14C52.8862 229.964 55.2497 230.424 56.4243 232.163C57.5989 233.904 57.14 236.266 55.3997 237.441L28.4067 255.661C27.7557 256.101 27.0157 256.312 26.2839 256.312Z" fill="#FFCC00"/>
<path fill-rule="evenodd" clip-rule="evenodd" d="M223.421 343.267H109.58C101.054 343.267 94.1191 336.332 94.1191 327.807C94.1191 319.281 101.055 312.346 109.58 312.346H223.421C231.946 312.346 238.881 319.281 238.881 327.807C238.881 336.332 231.946 343.267 223.421 343.267ZM109.58 319.949C105.247 319.949 101.722 323.475 101.722 327.807C101.722 332.139 105.248 335.665 109.58 335.665H223.421C227.753 335.665 231.279 332.139 231.279 327.807C231.279 323.475 227.753 319.949 223.421 319.949H109.58Z" fill="#FFCC00"/>
<path fill-rule="evenodd" clip-rule="evenodd" d="M208.742 366.587H124.259C115.734 366.587 108.799 359.651 108.799 351.125C108.799 342.599 115.735 335.664 124.259 335.664L208.742 335.665C217.268 335.665 224.204 342.599 224.204 351.126C224.204 359.651 217.268 366.587 208.742 366.587ZM124.259 343.267C119.926 343.267 116.401 346.793 116.401 351.125C116.401 355.458 119.927 358.983 124.259 358.983H208.742C213.075 358.983 216.601 355.459 216.601 351.126C216.601 346.793 213.075 343.267 208.742 343.267H124.259Z" fill="#FFCC00"/>
<path fill-rule="evenodd" clip-rule="evenodd" d="M183.717 389.914H153.172C138.219 389.914 126.053 377.748 126.053 362.794C126.053 360.694 127.754 358.993 129.854 358.993H207.036C209.137 358.993 210.837 360.694 210.837 362.795C210.837 377.748 198.672 389.914 183.717 389.914ZM134.028 366.596C135.801 375.544 143.712 382.311 153.173 382.311H183.718C193.179 382.311 201.09 375.544 202.864 366.596H134.028Z" fill="#FFCC00"/>
<path d="M241.822 147.816C236.25 155.869 241.486 162.895 246.735 170.906C252.182 179.222 249.244 190.066 241.117 197.248C240.416 197.69 239.814 198.271 239.348 198.957C238.882 199.642 238.563 200.416 238.409 201.23C238.256 202.044 238.273 202.881 238.457 203.689C238.642 204.497 238.992 205.258 239.484 205.924C245.013 217.611 241.074 228.913 230.049 235.923C227.805 237.413 226.069 239.552 225.072 242.054C223.575 246.956 220.405 251.177 216.115 253.982C211.825 256.787 206.687 257.997 201.596 257.402C200.401 257.456 199.23 257.763 198.162 258.301C197.094 258.84 196.153 259.6 195.4 260.529C189.071 269.283 180.807 271.013 171.763 264.614C170.832 263.719 169.588 263.222 168.297 263.229C167.006 263.236 165.768 263.746 164.846 264.651C156.118 270.958 147.528 269.132 141.145 260.458C140.376 259.531 139.421 258.777 138.341 258.244C137.261 257.711 136.081 257.412 134.877 257.366C129.893 258.021 124.839 256.866 120.633 254.113C116.427 251.359 113.348 247.189 111.954 242.358C110.976 239.811 109.234 237.628 106.968 236.109C95.1618 228.752 91.341 217.104 97.6968 204.665C99.4936 201.148 98.4683 199.771 96.0424 197.647C93.4083 195.624 91.2623 193.035 89.7629 190.071C88.2636 187.108 87.4492 183.845 87.3798 180.525C87.3105 177.204 87.9881 173.911 89.3624 170.887C90.7368 167.864 92.7729 165.188 95.3203 163.057C96.5297 162.204 97.3729 160.927 97.6813 159.48C97.9896 158.033 97.7405 156.523 96.9836 155.251C91.934 142.8 95.6252 132.762 106.964 125.463C109.33 123.772 111.114 121.39 112.071 118.645C113.491 114.035 116.495 110.076 120.553 107.468C124.61 104.86 129.459 103.77 134.242 104.392C135.693 104.758 137.226 104.607 138.578 103.965C139.929 103.324 141.015 102.231 141.648 100.875C142.712 98.9472 144.185 97.2761 145.965 95.9799C147.744 94.6836 149.787 93.7938 151.948 93.3731C154.109 92.9525 156.336 93.0113 158.472 93.5455C160.608 94.0796 162.601 95.0761 164.309 96.4645C164.815 96.9954 165.423 97.4192 166.096 97.7103C166.769 98.0015 167.494 98.1542 168.227 98.1593C168.96 98.1644 169.687 98.0219 170.364 97.7401C171.041 97.4583 171.655 97.0431 172.168 96.5192C180.524 90.5165 189.194 92.5569 195.374 100.927C196.199 101.91 197.222 102.707 198.377 103.267C199.532 103.827 200.792 104.137 202.075 104.177C207.173 103.66 212.289 104.968 216.515 107.868C220.74 110.767 223.799 115.072 225.15 120.015C226.377 122.642 228.367 124.839 230.861 126.318C234.476 128.56 237.409 131.748 239.341 135.538C241.273 139.328 242.131 143.574 241.822 147.816Z" stroke="#FFCC00" stroke-width="9" stroke-miterlimit="10"/>
<path d="M168.441 98.1367V263.234" stroke="#FFCC00" stroke-width="9" stroke-miterlimit="10"/>
<path d="M144.734 149.787C144.734 149.787 162.202 132.226 168.443 155.804" stroke="#FFCC00" stroke-width="9" stroke-linecap="round" stroke-linejoin="round"/>
<path d="M192.15 149.787C192.15 149.787 174.682 132.226 168.441 155.804" stroke="#FFCC00" stroke-width="9" stroke-linecap="round" stroke-linejoin="round"/>
<path d="M204.6 136.498C204.6 136.498 216.439 114.741 192.061 115.498" stroke="#FFCC00" stroke-width="9" stroke-linecap="round" stroke-linejoin="round"/>
<path d="M192.15 206.944C192.15 206.944 174.682 224.506 168.441 200.928" stroke="#FFCC00" stroke-width="9" stroke-linecap="round" stroke-linejoin="round"/>
<path d="M196.545 178.454C196.545 178.454 214.175 161.055 220.197 184.69" stroke="#FFCC00" stroke-width="9" stroke-linecap="round" stroke-linejoin="round"/>
<path d="M144.734 206.944C144.734 206.944 162.202 224.506 168.443 200.928" stroke="#FFCC00" stroke-width="9" stroke-linecap="round" stroke-linejoin="round"/>
<path d="M230.861 126.319C230.861 126.319 225.259 120.375 207.271 121.826" stroke="#FFCC00" stroke-width="9" stroke-linecap="round" stroke-linejoin="round"/>
<path d="M204.338 223.365C204.338 223.365 214.195 246.089 189.98 243.168" stroke="#FFCC00" stroke-width="9" stroke-linecap="round" stroke-linejoin="round"/>
<path d="M230.682 235.51C230.682 235.51 223.485 241.26 205.697 238.216" stroke="#FFCC00" stroke-width="9" stroke-linecap="round" stroke-linejoin="round"/>
<path d="M133.204 136.498C133.204 136.498 121.365 114.741 145.744 115.498" stroke="#FFCC00" stroke-width="9" stroke-linecap="round" stroke-linejoin="round"/>
<path d="M138.169 178.454C138.169 178.454 120.539 161.055 114.518 184.69" stroke="#FFCC00" stroke-width="9" stroke-linecap="round" stroke-linejoin="round"/>
<path d="M106.725 125.623C106.725 125.623 112.546 120.377 130.533 121.828" stroke="#FFCC00" stroke-width="9" stroke-linecap="round" stroke-linejoin="round"/>
<path d="M132.337 223.365C132.337 223.365 122.48 246.089 146.694 243.168" stroke="#FFCC00" stroke-width="9" stroke-linecap="round" stroke-linejoin="round"/>
<path d="M105.994 235.51C105.994 235.51 113.192 241.26 130.979 238.216" stroke="#FFCC00" stroke-width="9" stroke-linecap="round" stroke-linejoin="round"/>
<line x1="184.387" y1="268.254" x2="184.387" y2="316.154" stroke="#FFCC00" stroke-width="9"/>
<line x1="155.494" y1="268.254" x2="155.494" y2="316.154" stroke="#FFCC00" stroke-width="9"/>
</svg>
