<svg width="266" height="270" viewBox="0 0 236 240" fill="none" xmlns="http://www.w3.org/2000/svg">
<ellipse cx="96.6133" cy="93.0415" rx="84.7461" ry="82.0415" fill="#D9D9D9"/>
<path d="M96.2005 175.083C140.153 175.083 175.784 139.452 175.784 95.4998C175.784 51.5472 140.153 15.9165 96.2005 15.9165C52.2479 15.9165 16.6172 51.5472 16.6172 95.4998C16.6172 139.452 52.2479 175.083 96.2005 175.083Z" stroke="#1C1C1C" stroke-width="13" stroke-linecap="round" stroke-linejoin="round"/>
<path d="M114.582 63.6665L160.263 142.772" stroke="#1C1C1C" stroke-width="9" stroke-linecap="round" stroke-linejoin="round"/>
<path d="M77.8164 63.6665H169.178" stroke="#1C1C1C" stroke-width="9" stroke-linecap="round" stroke-linejoin="round"/>
<path d="M59.4336 95.4999L105.114 16.394" stroke="#1C1C1C" stroke-width="9" stroke-linecap="round" stroke-linejoin="round"/>
<path d="M77.8136 127.333L32.1328 48.2275" stroke="#1C1C1C" stroke-width="9" stroke-linecap="round" stroke-linejoin="round"/>
<path d="M114.584 127.333H23.2227" stroke="#1C1C1C" stroke-width="9" stroke-linecap="round" stroke-linejoin="round"/>
<path d="M132.966 95.5L87.2852 174.606" stroke="#1C1C1C" stroke-width="9" stroke-linecap="round" stroke-linejoin="round"/>
<path fill-rule="evenodd" clip-rule="evenodd" d="M154.536 158.846L172.964 178.114C174.342 179.552 176.234 180.384 178.225 180.429C180.216 180.473 182.144 179.725 183.584 178.35C185.022 176.972 185.855 175.08 185.899 173.089C185.943 171.098 185.196 169.17 183.82 167.73L165.391 148.462C164.014 147.024 162.122 146.191 160.131 146.147C158.139 146.103 156.212 146.85 154.772 148.226C153.334 149.604 152.501 151.496 152.457 153.487C152.412 155.478 153.16 157.405 154.536 158.846Z" fill="#1C1C1C"/>
<ellipse cx="96.1982" cy="95.4998" rx="31.499" ry="31.3464" fill="#1C1C1C"/>
<path d="M100.404 122.762C115.613 120.507 126.114 106.35 123.858 91.141C121.603 75.9323 107.446 65.4315 92.237 67.6868C77.0283 69.9422 66.5275 84.0996 68.7829 99.3083C71.0382 114.517 85.1956 125.018 100.404 122.762Z" fill="#878787"/>
<path d="M98.6163 110.76C107.196 109.488 113.121 101.501 111.848 92.9203C110.576 84.3401 102.589 78.4159 94.0085 79.6883C85.4283 80.9607 79.5041 88.9478 80.7765 97.5281C82.0489 106.108 90.036 112.032 98.6163 110.76Z" fill="#212022"/>
<path d="M106.171 77.8853L99.6484 78.8525L100.616 85.3747L107.138 84.4075L106.171 77.8853Z" fill="white"/>
<path fill-rule="evenodd" clip-rule="evenodd" d="M53.3205 130.79C34.0418 103.258 40.744 65.2568 68.2746 45.9781C69.342 45.2296 70.0687 44.088 70.2951 42.8041C70.5215 41.5202 70.2291 40.1989 69.4821 39.1304C68.7335 38.063 67.592 37.3363 66.3081 37.1099C65.0242 36.8835 63.7029 37.1759 62.6344 37.9229C30.6573 60.3147 22.8754 104.453 45.2653 136.43C46.0138 137.498 47.1554 138.225 48.4393 138.451C49.7232 138.677 51.0445 138.385 52.113 137.638C53.1804 136.889 53.9071 135.748 54.1335 134.464C54.3599 133.18 54.0675 131.859 53.3205 130.79Z" fill="white"/>
<circle cx="65.9336" cy="145.513" r="6.5" fill="white"/>
<rect width="22.6489" height="61.6845" transform="matrix(0.671598 -0.740916 0.705338 0.708872 173.027 186.038)" fill="#1C1C1C"/>
<path fill-rule="evenodd" clip-rule="evenodd" d="M202.608 175.343C199.244 171.708 194.99 169.202 190.365 168.131C185.74 167.059 180.944 167.469 176.56 169.31L176.557 169.31C175.795 169.629 175.105 170.119 174.53 170.746C173.955 171.374 173.508 172.126 173.218 172.955L173.219 172.959C171.547 177.73 171.196 182.943 172.206 187.962C173.217 192.981 175.547 197.588 178.911 201.224L204.085 228.426C206.979 231.552 210.884 233.316 214.941 233.329C218.999 233.343 222.877 231.606 225.722 228.499L227.967 226.048C229.375 224.51 230.488 222.681 231.241 220.668C231.994 218.654 232.373 216.494 232.356 214.311C232.339 212.129 231.927 209.966 231.142 207.948C230.357 205.929 229.216 204.093 227.783 202.545L202.606 175.343L202.608 175.343ZM180.551 177.252C179.681 180.308 179.603 183.576 180.327 186.697C181.051 189.818 182.548 192.673 184.655 194.949L209.829 222.152C211.173 223.603 212.987 224.422 214.872 224.428C216.756 224.435 218.557 223.629 219.88 222.187L222.124 219.737C223.445 218.293 224.177 216.332 224.161 214.285C224.145 212.238 223.381 210.272 222.038 208.819L196.863 181.614C194.756 179.337 192.12 177.726 189.244 176.956C186.367 176.187 183.36 176.29 180.551 177.252Z" fill="#1C1C1C"/>
</svg>
